<?xml version="1.0" encoding="utf-8"?>
<!-- Generator: Adobe Illustrator 27.0.0, SVG Export Plug-In . SVG Version: 6.00 Build 0)  -->
<svg version="1.1" id="Layer_1" xmlns="http://www.w3.org/2000/svg" xmlns:xlink="http://www.w3.org/1999/xlink" x="0px" y="0px"
	 viewBox="0 0 1031.4 266.1" style="enable-background:new 0 0 1031.4 266.1;" xml:space="preserve">
<style type="text/css">
	.st0{fill:#0D1A49;}
	.st1{fill:#0046BE;}
</style>
<g>
	<g>
		<path class="st0" d="M382.5,107.5c-2.2-9.3-7.4-15.8-15.8-19.5c-4.7-2-9.9-3-15.6-3c-11,0-20,4.1-27,12.4s-10.6,20.7-10.6,37.3
			c0,16.7,3.8,28.5,11.4,35.5c7.6,6.9,16.3,10.4,26,10.4c9.5,0,17.4-2.7,23.5-8.2s9.8-12.6,11.3-21.5h-31.5v-22.7h56.7v73h-18.8
			l-2.9-17c-5.5,6.4-10.4,11-14.8,13.6c-7.5,4.6-16.7,6.9-27.7,6.9c-18,0-32.8-6.2-44.3-18.7c-12-12.5-18-29.7-18-51.5
			c0-22,6.1-39.7,18.2-53s28.2-19.9,48.1-19.9c17.3,0,31.2,4.4,41.7,13.2s16.5,19.7,18.1,32.8L382.5,107.5L382.5,107.5z"/>
		<path class="st0" d="M519.8,188.8c-8.5,10.5-21.4,15.7-38.7,15.7c-17.3,0-30.2-5.2-38.7-15.7s-12.7-23.1-12.7-37.9
			c0-14.5,4.2-27.1,12.7-37.7s21.4-16,38.7-16c17.3,0,30.2,5.3,38.7,16c8.5,10.6,12.7,23.2,12.7,37.7
			C532.5,165.7,528.2,178.3,519.8,188.8z M498.8,174.2c4.1-5.5,6.2-13.2,6.2-23.3s-2.1-17.8-6.2-23.3c-4.1-5.4-10-8.2-17.7-8.2
			s-13.6,2.7-17.8,8.2c-4.2,5.4-6.2,13.2-6.2,23.3s2.1,17.9,6.2,23.3c4.2,5.5,10.1,8.2,17.8,8.2
			C488.8,182.4,494.7,179.7,498.8,174.2z"/>
		<path class="st0" d="M553.5,65H582v111.6h68v24.5h-96.4L553.5,65L553.5,65z"/>
		<path class="st0" d="M694,88.5h-26.7V64.2H694V88.5z M667.2,100.5H694v100.6h-26.7V100.5z"/>
		<path class="st0" d="M800.5,106.2c6.6,5.4,9.9,14.5,9.9,27.1v67.8h-27v-61.2c0-5.3-0.7-9.4-2.1-12.2c-2.6-5.2-7.5-7.8-14.7-7.8
			c-8.9,0-14.9,3.8-18.2,11.4c-1.7,4-2.6,9.1-2.6,15.3v54.5h-26.3V100.6h25.5v14.7c3.4-5.2,6.6-8.9,9.6-11.2
			c5.4-4.1,12.2-6.1,20.5-6.1C785.5,98.1,794,100.8,800.5,106.2z"/>
		<path class="st0" d="M834.7,65.5h25.9v73.4l33.2-38h32.7l-36.1,37.5l37.5,62.7h-32l-24.4-43l-10.9,11.3v31.7h-25.9V65.5z"/>
		<path class="st0" d="M960.5,169c0.6,4.7,1.8,8,3.6,10c3.3,3.5,9.3,5.3,18.2,5.3c5.2,0,9.3-0.8,12.4-2.3c3.1-1.5,4.6-3.8,4.6-6.9
			c0-3-1.2-5.2-3.7-6.7s-11.6-4.2-27.5-7.9c-11.4-2.8-19.5-6.4-24.2-10.6c-4.7-4.2-7-10.2-7-18.1c0-9.3,3.7-17.3,11-24
			s17.6-10,30.9-10c12.6,0,22.8,2.5,30.8,7.5c7.9,5,12.5,13.7,13.6,26h-26.3c-0.4-3.4-1.3-6.1-2.9-8c-2.9-3.6-7.8-5.4-14.8-5.4
			c-5.7,0-9.8,0.9-12.3,2.7c-2.4,1.8-3.7,3.9-3.7,6.3c0,3,1.3,5.2,3.9,6.6c2.6,1.4,11.7,3.8,27.5,7.3c10.5,2.5,18.3,6.2,23.6,11.2
			c5.2,5,7.8,11.4,7.8,18.9c0,10-3.7,18.1-11.1,24.4c-7.4,6.3-18.9,9.5-34.5,9.5c-15.9,0-27.6-3.3-35.1-10
			c-7.6-6.7-11.3-15.2-11.3-25.5h26.5V169z"/>
	</g>
	<g>
		<path class="st1" d="M225.9,133.1c0-39.8,0.1-79.6,0-119.4c0-6.7,0-6.7-6.8-6.7C152,7,84.9,7,17.8,6.9c-2.2,0-4.4,0.2-6.5-0.2
			c-4.6-0.9-5.7,1-5.7,5.3c0.1,80.5,0.1,161-0.1,241.5c0,5,1.6,6.1,6.3,6.1c69.3-0.1,138.5-0.2,207.8,0c5.1,0,6.4-1.5,6.4-6.5
			C225.8,213.1,225.9,173.1,225.9,133.1z M91.4,63.7h2.5c3.5,1.2,4.7,3.7,4.6,7.3c-0.1,5.2,0,10.5,0,15.7c0,2.7-1.6,4.8-3.9,5.6
			c-2.4,0.8-5,0.1-6.4-2c-0.7-1.1-1.2-2.5-1.2-3.8c-0.1-5.5-0.1-11.1-0.1-16.6C86.9,66.7,88.5,64.8,91.4,63.7z M59.7,76.9
			c2-2,5.3-2.2,7.5-0.5c0.4,0.3,0.8,0.7,1.2,1.1c5.4,5.4,10.8,10.8,16.2,16.2c1.3,1.3,2.3,2.7,2.3,4.6c-0.1,2.4-1.1,4.2-3.2,5.2
			c-2.1,1-4.3,1-6-0.6c-6.2-6.1-12.4-12.2-18.5-18.5C57.2,82.4,57.7,78.9,59.7,76.9z M52.4,104.2c5.7-0.1,11.4-0.1,17.2,0
			c3.5,0.1,5.9,2.6,5.9,5.8c0,3.3-2.6,5.7-6.2,5.7H52.7c-3.5,0-6.1-2.4-6.1-5.7C46.5,106.8,49,104.2,52.4,104.2z M112.5,176.9
			c-0.3,0.4-0.6,0.7-0.9,1c-5.1,5.1-10.3,10.3-15.4,15.4c-5.8,6-12.7,8.9-21.9,9.1c-11.3-0.6-20.6-6.2-25.5-17.7
			C44,173.6,46,163.1,54,154.1c5.7-6.3,12-12.1,18-18.2c5-5,10-10.1,15.1-15.1c8.1-7.9,17.6-10.6,28.6-7.8c4.9,1.3,9.1,3.8,12.7,7.4
			c2.2,2.3,2.2,5.7,0.1,7.9c-2.1,2.3-5.6,2.5-7.9,0.4c-2.8-2.5-5.9-4.5-9.7-5.1c-5.4-0.8-10.2,0.4-14.3,4c-1.5,1.3-2.8,2.7-4.2,4.1
			c-9.7,9.7-19.4,19.4-29.1,29.1c-6.8,6.8-7.2,17.1-0.9,24.1c6.4,7.1,17.4,7.8,24.4,1.3c5.7-5.3,11.1-11,16.6-16.5
			c1.7-1.7,3.7-2.6,6.1-1.9C113.5,168.9,115,173.7,112.5,176.9z M144.5,196.4c-0.1,3.5-2.7,6-5.9,5.9c-3.3-0.1-5.6-2.6-5.6-6.2
			v-16.4c0-3.5,2.4-6.1,5.6-6.2c3.2-0.1,5.8,2.4,5.9,5.9C144.7,185.1,144.7,190.8,144.5,196.4z M173,187.5c-0.9,2.1-2.8,3.2-5.2,3.3
			c-1.7,0-3.1-0.6-4.2-1.8l-17.1-17.1c-2.4-2.4-2.3-6-0.1-8.2c2.2-2.2,5.8-2.3,8.1,0.1c5.8,5.7,11.6,11.5,17.3,17.3
			C173.5,182.9,174,185.1,173,187.5z M185,157.4c-0.2,0.4-0.3,0.7-0.5,1.1c-0.9,1.9-2.3,3.3-4.4,3.3c-6.3,0.1-12.7,0.1-19.1,0
			c-2.3-0.1-4.2-2-4.7-4.2c-0.5-2.4,0.3-4.9,2.4-6.1c1-0.6,2.2-1,3.3-1c5.7-0.1,11.4-0.1,17,0c3.1,0,4.9,1.8,6,4.6V157.4z M185,95.4
			c-0.4,1.9-0.8,3.9-1.3,5.8c-1.4,4.7-4,8.7-7.5,12.2L141,148.6c-9.3,9.2-22,11.4-33.6,5.7c-2.7-1.3-5.1-3.3-7.4-5.3
			c-2.4-2.1-2.4-5.7-0.3-8c2.1-2.3,5.6-2.6,8-0.4c2.8,2.5,5.8,4.4,9.6,5c5.3,0.9,10.1-0.4,14.3-3.9c0.4-0.4,0.9-0.8,1.3-1.2
			c11.8-11.8,23.6-23.5,35.3-35.3c6.8-6.8,7.2-17,1-24.1c-6.2-7-17.1-7.8-24.2-1.6c-0.6,0.5-1.1,1-1.7,1.6
			c-6.2,6.2-12.4,12.4-18.6,18.6c-1.8,1.8-3.9,2.5-6.3,1.6c-2.2-0.8-3.5-2.5-3.8-4.8c-0.2-1.5,0.2-2.9,1.1-4.1
			c0.4-0.5,0.8-0.9,1.2-1.3c6.1-6.1,12.2-12.2,18.3-18.3c4.9-4.9,10.7-8,17.7-8.9c0.2,0,0.4-0.2,0.6-0.2h5.4
			c0.3,0.1,0.6,0.2,0.9,0.2c11.8,1.8,19.7,8.3,23.8,19.5c0.8,2.1,1.1,4.3,1.6,6.5C185,91.8,185,93.6,185,95.4z"/>
	</g>
</g>
</svg>
