<?xml version="1.0" encoding="utf-8"?>
<!-- Generator: Adobe Illustrator 27.0.0, SVG Export Plug-In . SVG Version: 6.00 Build 0)  -->
<svg version="1.1" id="Layer_1" xmlns="http://www.w3.org/2000/svg" xmlns:xlink="http://www.w3.org/1999/xlink" x="0px" y="0px"
	 viewBox="0 0 566.9 138.7" style="enable-background:new 0 0 566.9 138.7;" xml:space="preserve">
<style type="text/css">
	.st0{fill:#FFFFFF;}
	.st1{fill:#F5970C;}
</style>
<g>
	<g>
		<g>
			<path class="st0" d="M9.6,94.1c-2-0.2-3.6-1.1-4.9-2.6c-1.3-1.5-1.9-3.2-1.9-5.2V14.3c0-2,0.6-3.7,1.9-5.2s2.9-2.3,4.9-2.6
				c5.1-0.6,10.7-0.8,17-0.8c14.1,0,24.9,3.7,32.4,11.1S70.3,35,70.3,49.2c0,15.2-3.7,26.7-11.2,34.3c-7.5,7.7-18.3,11.5-32.4,11.5
				C20.3,94.9,14.7,94.7,9.6,94.1z M19.4,20.7V80c0,0.6,0.3,0.9,1,1.1c2.5,0.4,4.9,0.6,7.1,0.6c9.3,0,16.1-2.5,20.5-7.6
				c4.4-5,6.5-13.3,6.5-24.9c0-10.4-2.2-18-6.7-22.8c-4.4-4.8-11.2-7.3-20.3-7.3c-2.2,0-4.6,0.2-7.1,0.6
				C19.7,19.8,19.4,20.2,19.4,20.7z"/>
			<path class="st0" d="M108,94.9c-10.4,0-18.4-2.7-24-8.1c-5.6-5.4-8.4-13.4-8.4-24c0-10.5,2.5-18.4,7.5-23.9
				c5-5.5,12.2-8.2,21.6-8.2c17.6,0,26.6,10,27.1,30c0.1,1.9-0.6,3.5-2,4.8c-1.4,1.3-3.1,1.9-5,1.9H92.4c-0.7,0-1,0.4-0.8,1.1
				c0.6,5.3,2.3,9.2,5.3,11.6c3,2.4,7.3,3.6,13,3.6c3.6,0,7.5-0.6,11.9-1.8c1.4-0.4,2.8-0.2,4,0.7c1.2,0.9,1.8,2.1,1.8,3.6
				c0,1.8-0.5,3.4-1.6,4.8c-1.1,1.4-2.5,2.2-4.2,2.6C117.3,94.5,112.7,94.9,108,94.9z M105,41.8c-4,0-7.2,1.1-9.3,3.4
				c-2.2,2.3-3.5,5.9-4.1,10.9c0,0.6,0.3,1,1,1h23.3c0.6,0,1-0.3,1-1C116.4,46.5,112.5,41.8,105,41.8z"/>
			<path class="st0" d="M171.3,94.9c-10.4,0-18.4-2.7-24-8.1c-5.6-5.4-8.4-13.4-8.4-24c0-10.5,2.5-18.4,7.5-23.9
				c5-5.5,12.2-8.2,21.6-8.2c17.6,0,26.6,10,27.1,30c0.1,1.9-0.6,3.5-2,4.8c-1.4,1.3-3.1,1.9-5,1.9h-32.5c-0.7,0-1,0.4-0.8,1.1
				c0.6,5.3,2.3,9.2,5.3,11.6c3,2.4,7.3,3.6,13,3.6c3.6,0,7.5-0.6,11.9-1.8c1.4-0.4,2.8-0.2,4,0.7c1.2,0.9,1.8,2.1,1.8,3.6
				c0,1.8-0.5,3.4-1.6,4.8c-1.1,1.4-2.5,2.2-4.2,2.6C180.7,94.5,176.1,94.9,171.3,94.9z M168.4,41.8c-4,0-7.2,1.1-9.3,3.4
				c-2.2,2.3-3.5,5.9-4.1,10.9c0,0.6,0.3,1,1,1h23.3c0.6,0,1-0.3,1-1C179.8,46.5,175.9,41.8,168.4,41.8z"/>
			<path class="st0" d="M215.7,93.8c-1.8,0-3.4-0.7-4.8-2c-1.3-1.3-2-2.9-2-4.8V11.3c0-1.8,0.7-3.4,2-4.8c1.3-1.3,2.9-2,4.8-2h3.1
				c1.8,0,3.4,0.7,4.8,2c1.3,1.3,2,2.9,2,4.8V87c0,1.8-0.7,3.4-2,4.8c-1.4,1.3-2.9,2-4.8,2H215.7z"/>
			<path class="st0" d="M250.8,94.1c-2-0.2-3.6-1.1-4.9-2.6c-1.3-1.5-1.9-3.2-1.9-5.2V14.3c0-2,0.6-3.7,1.9-5.2
				c1.3-1.5,2.9-2.3,4.9-2.6c5.1-0.6,10.7-0.8,17-0.8c14.1,0,24.9,3.7,32.4,11.1c7.5,7.4,11.2,18.2,11.2,32.3
				c0,15.2-3.7,26.7-11.2,34.3c-7.5,7.7-18.3,11.5-32.4,11.5C261.5,94.9,255.8,94.7,250.8,94.1z M260.5,20.7V80c0,0.6,0.3,0.9,1,1.1
				c2.5,0.4,4.9,0.6,7.1,0.6c9.3,0,16.1-2.5,20.5-7.6c4.4-5,6.5-13.3,6.5-24.9c0-10.4-2.2-18-6.7-22.8c-4.4-4.8-11.2-7.3-20.3-7.3
				c-2.2,0-4.6,0.2-7.1,0.6C260.8,19.8,260.5,20.2,260.5,20.7z"/>
			<path class="st0" d="M349.1,94.9c-10.4,0-18.4-2.7-24-8.1c-5.6-5.4-8.4-13.4-8.4-24c0-10.5,2.5-18.4,7.5-23.9
				c5-5.5,12.2-8.2,21.6-8.2c17.6,0,26.6,10,27.1,30c0.1,1.9-0.6,3.5-2,4.8c-1.4,1.3-3.1,1.9-5,1.9h-32.5c-0.7,0-1,0.4-0.8,1.1
				c0.6,5.3,2.3,9.2,5.3,11.6c3,2.4,7.3,3.6,13,3.6c3.6,0,7.5-0.6,11.9-1.8c1.4-0.4,2.8-0.2,4,0.7c1.2,0.9,1.8,2.1,1.8,3.6
				c0,1.8-0.5,3.4-1.6,4.8c-1.1,1.4-2.5,2.2-4.2,2.6C358.5,94.5,353.9,94.9,349.1,94.9z M346.1,41.8c-4,0-7.2,1.1-9.3,3.4
				c-2.2,2.3-3.5,5.9-4.1,10.9c0,0.6,0.3,1,1,1H357c0.6,0,1-0.3,1-1C357.6,46.5,353.7,41.8,346.1,41.8z"/>
			<path class="st0" d="M389.9,119.9c-1.8,0-3.4-0.7-4.8-2c-1.3-1.3-2-2.9-2-4.8V38.7c0-1.8,0.7-3.4,2-4.8c1.3-1.3,2.9-2,4.8-2h1.4
				c1.9,0,3.5,0.7,4.9,2c1.3,1.3,2.1,2.9,2.1,4.8v0.8c0,0.1,0,0.1,0.1,0.1c0.1,0,0.2,0,0.2-0.1c2.9-3.2,5.7-5.4,8.6-6.8
				c2.9-1.3,6.2-2,10-2c7.5,0,13.4,2.8,17.8,8.4c4.4,5.6,6.7,13.5,6.7,23.7c0,9.9-2.3,17.7-7,23.5c-4.6,5.7-10.5,8.6-17.5,8.6
				c-6.9,0-12.9-2.5-18-7.5c-0.1-0.1-0.2-0.1-0.2-0.1c-0.1,0-0.1,0-0.1,0.1v25.7c0,1.8-0.7,3.4-2,4.8c-1.3,1.3-2.9,2-4.7,2H389.9z
				 M398.8,54.8v16.2c0,3.2,1.4,6,4.1,8.4s5.9,3.7,9.6,3.7c4.2,0,7.5-1.7,10-5.1c2.5-3.4,3.7-8.4,3.7-15.1
				c0-13.5-4.6-20.2-13.7-20.2c-3.6,0-6.8,1.2-9.6,3.7S398.8,51.6,398.8,54.8z"/>
			<path class="st0" d="M501.2,86.6c-5.3,5.6-12.7,8.4-22.2,8.4c-9.5,0-16.9-2.8-22.2-8.4c-5.3-5.6-7.9-13.5-7.9-23.7
				c0-10.2,2.6-18.1,7.9-23.7c5.3-5.6,12.7-8.4,22.2-8.4c9.5,0,16.9,2.8,22.2,8.4c5.3,5.6,7.9,13.5,7.9,23.7
				C509.1,73.1,506.4,81,501.2,86.6z M489.5,47.2c-2.3-3.3-5.8-4.9-10.5-4.9c-4.7,0-8.2,1.6-10.5,4.9c-2.3,3.3-3.5,8.5-3.5,15.6
				c0,7.1,1.2,12.4,3.5,15.6c2.3,3.3,5.8,4.9,10.5,4.9c4.7,0,8.2-1.6,10.5-4.9c2.3-3.3,3.5-8.5,3.5-15.6
				C493,55.7,491.8,50.5,489.5,47.2z"/>
			<path class="st0" d="M520.1,45.8c-1.6,0-2.9-0.6-4-1.7c-1.1-1.1-1.7-2.5-1.7-4.1c0-1.6,0.6-2.9,1.7-4c1.1-1.1,2.5-1.7,4-1.7h5.7
				c0.7,0,1.1-0.4,1.1-1.1V18.5c0-1.8,0.7-3.4,2-4.8c1.3-1.3,2.9-2,4.7-2h2.4c1.8,0,3.4,0.7,4.8,2c1.3,1.3,2,2.9,2,4.8v14.7
				c0,0.7,0.4,1.1,1.1,1.1h13.6c1.6,0,3,0.6,4.1,1.7c1.1,1.1,1.7,2.5,1.7,4c0,1.6-0.6,3-1.7,4.1c-1.1,1.1-2.5,1.7-4.1,1.7h-13.6
				c-0.7,0-1.1,0.3-1.1,1v24c0,5.2,0.6,8.5,1.7,10c1.1,1.5,3.4,2.3,6.9,2.3c1.9,0,3.3-0.1,4.3-0.2c1.6-0.2,3,0.2,4.2,1.1
				c1.2,0.9,1.8,2.1,1.8,3.6c0,1.7-0.6,3.3-1.7,4.7c-1.1,1.4-2.6,2.2-4.2,2.3c-3.5,0.3-6.1,0.5-7.8,0.5c-7.7,0-13.1-1.6-16.2-4.9
				c-3.1-3.3-4.6-9.2-4.6-17.7V46.8c0-0.6-0.4-1-1.1-1H520.1z"/>
		</g>
	</g>
	<g>
		<g>
			<path class="st1" d="M136.4,135.9c-12.8,0-24.6-5.8-32.5-15.5c-2.8-3.4-1.6-8.6,2.3-10.6l0,0c2.9-1.5,6.6-0.8,8.6,1.8
				c5.2,6.4,13,10.3,21.5,10.3c8.5,0,16.3-3.8,21.5-10.3c2.1-2.6,5.7-3.3,8.6-1.8l0,0c3.9,2,5.1,7.2,2.3,10.6
				C161,130.1,149.2,135.9,136.4,135.9z"/>
		</g>
	</g>
</g>
</svg>
